<svg width="100" height="100" viewBox="0 0 100 100" xmlns="http://www.w3.org/2000/svg">
  <path d="M35,45 L20,35 Q15,35 25,50" fill="#a67c52" stroke="#333" stroke-width="2" />
  <path d="M65,45 L80,35 Q85,35 75,50" fill="#a67c52" stroke="#333" stroke-width="2" />
  <path d="M40,40 L30,20 M30,20 L20,25 M30,20 L35,10" fill="none" stroke="#333" stroke-width="2" stroke-linecap="round" />
  <path d="M60,40 L70,20 M70,20 L80,25 M70,20 L65,10" fill="none" stroke="#333" stroke-width="2" stroke-linecap="round" />
  <path d="M50,40 Q35,40 35,60 Q35,85 50,85 Q65,85 65,60 Q65,40 50,40" fill="#a67c52" stroke="#333" stroke-width="2" />
  <circle cx="43" cy="60" r="2" fill="#333" />
  <circle cx="57" cy="60" r="2" fill="#333" />
  <circle cx="50" cy="75" r="4" fill="#333" />
</svg>