<svg width="100" height="100" viewBox="0 0 100 100" xmlns="http://www.w3.org/2000/svg">
  <path d="M10,40 L16,52 L28,52 L19,60 L22,72 L10,65 L-2,72 L1,60 L-8,52 L4,52 Z" fill="#ffd700" transform="translate(5,0) scale(0.8)" />
  <path d="M30,40 L36,52 L48,52 L39,60 L42,72 L30,65 L18,72 L21,60 L12,52 L24,52 Z" fill="#ffd700" transform="translate(5,0) scale(0.8)" />
  <path d="M50,40 L56,52 L68,52 L59,60 L62,72 L50,65 L38,72 L41,60 L32,52 L44,52 Z" fill="#ffd700" transform="translate(5,0) scale(0.8)" />
  <path d="M70,40 L76,52 L88,52 L79,60 L82,72 L70,65 L58,72 L61,60 L52,52 L64,52 Z" fill="#ffd700" transform="translate(5,0) scale(0.8)" />
  <path d="M90,40 L96,52 L108,52 L99,60 L102,72 L90,65 L78,72 L81,60 L72,52 L84,52 Z" fill="#ffd700" transform="translate(5,0) scale(0.8)" />
</svg>
