<svg width="64" height="64" viewBox="0 0 64 64" xmlns="http://www.w3.org/2000/svg">
  <path d="M32 20c-6.627 0-12 5.373-12 12s5.373 12 12 12 12-5.373 12-12-5.373-12-12-12zm0 18c-3.314 0-6-2.686-6-6s2.686-6 6-6 6 2.686 6 6-2.686 6-6 6z" fill="#ecf0f1"/>
  <path d="M62 28h-6.21a22.1 22.1 0 0 0-2.58-6.21l4.4-4.4a2 2 0 0 0 0-2.83l-4.24-4.24a2 2 0 0 0-2.83 0l-4.4 4.4A22.1 22.1 0 0 0 40 8.21V2a2 2 0 0 0-2-2h-6a2 2 0 0 0-2 2v6.21a22.1 22.1 0 0 0-6.21 2.58l-4.4-4.4a2 2 0 0 0-2.83 0l-4.24 4.24a2 2 0 0 0 0 2.83l4.4 4.4A22.1 22.1 0 0 0 8.21 28H2a2 2 0 0 0-2 2v6a2 2 0 0 0 2 2h6.21a22.1 22.1 0 0 0 2.58 6.21l-4.4 4.4a2 2 0 0 0 0 2.83l4.24 4.24a2 2 0 0 0 2.83 0l4.4-4.4A22.1 22.1 0 0 0 26 55.79V62a2 2 0 0 0 2 2h6a2 2 0 0 0 2-2v-6.21a22.1 22.1 0 0 0 6.21-2.58l4.4 4.4a2 2 0 0 0 2.83 0l4.24-4.24a2 2 0 0 0 0-2.83l-4.4-4.4A22.1 22.1 0 0 0 55.79 38H62a2 2 0 0 0 2-2v-6a2 2 0 0 0-2-2zM32 46c-7.732 0-14-6.268-14-14s6.268-14 14-14 14 6.268 14 14-6.268 14-14 14z" fill="#ecf0f1"/>
</svg>
